<svg xmlns="http://www.w3.org/2000/svg" viewBox="0 0 159.707 61.377"><path d="M39.83 9.53a1 1 0 0 0-.9.39l-3.258 4.307a1 1 0 0 0 .285 1.462l43.385 25.897a1 1 0 0 0 .635.125 1 1 0 0 0 .566-.125l43.385-25.897a1 1 0 0 0 .283-1.462l-3.258-4.307a1 1 0 0 0-1.375-.213L79.941 37.668 40.305 9.707a1 1 0 0 0-.475-.178ZM132.674.003a1.493 1.493 0 0 0-.854.2l-1.582.911a1.496 1.496 0 0 0-.549 2.05l17.774 30.786c.415.72 1.329.965 2.049.549l1.582-.914c.72-.416.964-1.33.549-2.049L133.869.752a1.496 1.496 0 0 0-1.195-.748zM27.322.012a1.498 1.498 0 0 0-1.484.74L8.064 31.537c-.415.72-.17 1.633.55 2.049l1.58.914c.719.416 1.633.17 2.048-.549L30.018 3.164c.415-.72.17-1.633-.55-2.049L27.888.203a1.502 1.502 0 0 0-.565-.191ZM10.76 2.367a1.219 1.219 0 0 0-.47.035 1.265 1.265 0 0 0-.757.588L1.85 16.3c-.347.6-.15 1.357.437 1.696.588.34 1.341.13 1.688-.47l7.683-13.311c.346-.6.152-1.354-.435-1.693a1.21 1.21 0 0 0-.463-.155Zm138.187 0a1.21 1.21 0 0 0-.463.155 1.233 1.233 0 0 0-.435 1.693l7.683 13.31c.347.6 1.098.81 1.686.471.588-.34.786-1.095.44-1.695l-7.684-13.31c-.173-.3-.451-.504-.756-.589a1.219 1.219 0 0 0-.47-.035zm-21.361.574a1.493 1.493 0 0 0-.854.2l-2.34 1.35a1.496 1.496 0 0 0-.548 2.048L134.16 24.41c4.851 10.947 1.547 23.52-9.094 29.662-13.023 6.945-25.149 4.886-34.818-6.174L101.33 41.5c3.814 4.776 11.384 5.848 16.76 2.744 5.375-3.103 7.672-9.874 5.066-15.347l.043-.022 6.881-3.975 1.01 1.75a.5.5 0 0 0 .683.182l1.952-1.127a.499.499 0 0 0 .183-.682l-3.265-5.656a.498.498 0 0 0-.682-.181l-1.953 1.127a.498.498 0 0 0-.182.681l1.01 1.752-6.88 3.973-42.102 24.306L37.752 26.72l-6.88-3.973 1.009-1.752a.499.499 0 0 0-.184-.681l-1.95-1.127a.5.5 0 0 0-.684.181l-3.264 5.656a.498.498 0 0 0 .181.682l1.954 1.127a.5.5 0 0 0 .683-.182l1.008-1.75 6.883 3.975.043.022c-2.605 5.473-.31 12.244 5.066 15.347 5.376 3.104 12.946 2.032 16.76-2.744l11.082 6.398c-9.67 11.06-21.794 13.12-34.818 6.174C24 47.93 20.694 35.357 25.545 24.41L35.863 6.54c.416-.72.171-1.634-.549-2.05l-2.34-1.35a1.496 1.496 0 0 0-2.048.55l-8.887 15.392c-7.732 13.392-2.79 30.721 10.602 38.453 13.03 7.524 30.137 3.696 38.173-8.853l8.68 5.01c.358.213.358.21.719 0l8.68-5.01c8.036 12.549 25.143 16.377 38.173 8.853 13.393-7.732 18.334-25.06 10.602-38.453L128.781 3.69a1.496 1.496 0 0 0-1.195-.748zM2.033 5.186 0 8.709l4.223 2.438 2.033-3.524zm155.639 0-4.22 2.437 2.032 3.524 4.223-2.438zM19.4 6.398a1.254 1.254 0 0 0-1.223.625L9.665 21.768c-.346.6-.152 1.356.436 1.695.587.34 1.339.129 1.685-.47L20.3 8.247c.346-.6.152-1.356-.436-1.695a1.203 1.203 0 0 0-.463-.155Zm120.907 0c-.159.019-.316.07-.463.155a1.235 1.235 0 0 0-.436 1.695l8.514 14.744c.346.6 1.098.81 1.685.47.588-.338.782-1.095.436-1.694l-8.514-14.745a1.254 1.254 0 0 0-1.222-.625zM10.744 7.494a.251.251 0 0 0-.152.117l-4.21 7.295a.25.25 0 0 0 .09.342l4.33 2.5a.25.25 0 0 0 .343-.092l4.212-7.295a.25.25 0 0 0-.091-.341l-4.332-2.5a.249.249 0 0 0-.19-.026zm138.219 0a.249.249 0 0 0-.19.026l-4.332 2.5a.25.25 0 0 0-.091.341l4.213 7.295a.25.25 0 0 0 .341.092l4.328-2.5a.25.25 0 0 0 .092-.342l-4.209-7.295a.251.251 0 0 0-.152-.117z" color="#000"/></svg>